<svg width="16" height="16" viewBox="0 0 16 16" fill="none" xmlns="http://www.w3.org/2000/svg">
<path d="M5 8V7.5C4.86739 7.5 4.74021 7.55268 4.64645 7.64645C4.55268 7.74021 4.5 7.86739 4.5 8H5ZM11 8H11.5C11.5 7.86739 11.4473 7.74021 11.3536 7.64645C11.2598 7.55268 11.1326 7.5 11 7.5V8ZM11 7.5H5V8.5H11V7.5ZM8 11.5C9.97066 11.5 11.5 9.97066 11.5 8H10.5C10.5 9.41838 9.41838 10.5 8 10.5V11.5ZM4.5 8C4.5 9.97066 6.02934 11.5 8 11.5V10.5C6.58162 10.5 5.5 9.41838 5.5 8H4.5ZM8 14.5C4.41015 14.5 1.5 11.5899 1.5 8H0.5C0.5 12.1421 3.85786 15.5 8 15.5V14.5ZM14.5 8C14.5 11.5899 11.5899 14.5 8 14.5V15.5C12.1421 15.5 15.5 12.1421 15.5 8H14.5ZM8 1.5C11.5899 1.5 14.5 4.41015 14.5 8H15.5C15.5 3.85786 12.1421 0.5 8 0.5V1.5ZM8 0.5C3.85786 0.5 0.5 3.85786 0.5 8H1.5C1.5 4.41015 4.41015 1.5 8 1.5V0.5ZM4.5 6.5H5.5V5.5H4.5V6.5ZM10.5 6.5H11.5V5.5H10.5V6.5Z" fill="#555555"/>
</svg>
