<svg width="16" height="15" viewBox="0 0 16 15" fill="none" xmlns="http://www.w3.org/2000/svg">
<path d="M1 9.5L0.646447 9.14645L0.5 9.29289V9.5H1ZM10 0.5L10.3536 0.146447C10.1583 -0.0488155 9.84171 -0.0488155 9.64645 0.146447L10 0.5ZM15 5.5L15.3536 5.85355C15.5488 5.65829 15.5488 5.34171 15.3536 5.14645L15 5.5ZM6 14.5V15H6.20711L6.35355 14.8536L6 14.5ZM1 14.5H0.5C0.5 14.7761 0.723858 15 1 15V14.5ZM1.35355 9.85355L10.3536 0.853553L9.64645 0.146447L0.646447 9.14645L1.35355 9.85355ZM9.64645 0.853553L14.6464 5.85355L15.3536 5.14645L10.3536 0.146447L9.64645 0.853553ZM14.6464 5.14645L5.64645 14.1464L6.35355 14.8536L15.3536 5.85355L14.6464 5.14645ZM6 14H1V15H6V14ZM1.5 14.5V9.5H0.5V14.5H1.5ZM6.64645 3.85355L11.6464 8.85355L12.3536 8.14645L7.35355 3.14645L6.64645 3.85355ZM8.5 15H15.5V14H8.5V15Z" fill="#555555"/>
</svg>
