<svg width="16" height="18" viewBox="0 0 16 18" fill="none" xmlns="http://www.w3.org/2000/svg">
<path d="M15.9999 8.90502C15.9999 8.18875 15.9454 7.66606 15.8276 7.12402H8.16309V10.3569H12.662C12.5713 11.1603 12.0815 12.3703 10.993 13.1833L10.9778 13.2915L13.4011 15.2949L13.569 15.3128C15.111 13.7931 15.9999 11.5572 15.9999 8.90502Z" fill="#4285F4"/>
<path d="M8.16271 17.423C10.3668 17.423 12.2171 16.6486 13.5686 15.3129L10.9926 13.1834C10.3033 13.6964 9.37812 14.0545 8.16271 14.0545C6.00398 14.0545 4.17178 12.5349 3.51865 10.4344L3.42292 10.4431L0.903071 12.5242L0.870117 12.622C2.21252 15.4677 4.96992 17.423 8.16271 17.423Z" fill="#34A853"/>
<path d="M3.51927 10.4344C3.34694 9.89235 3.2472 9.31154 3.2472 8.71144C3.2472 8.11128 3.34694 7.53054 3.5102 6.9885L3.50564 6.87306L0.954213 4.75854L0.870735 4.80092C0.317467 5.98182 0 7.30793 0 8.71144C0 10.115 0.317467 11.441 0.870735 12.6219L3.51927 10.4344Z" fill="#FBBC05"/>
<path d="M8.16272 3.36842C9.69559 3.36842 10.7296 4.07501 11.3192 4.6655L13.6231 2.26499C12.2081 0.861472 10.3668 0 8.16272 0C4.96992 0 2.21252 1.95523 0.870117 4.80096L3.50959 6.98854C4.17178 4.88811 6.00399 3.36842 8.16272 3.36842Z" fill="#EB4335"/>
</svg>
